# AST/ASF file generated using VICON BodyLanguage
# -----------------------------------------------
:version 1.10
:name VICON
:units
  mass 1.0
  length 0.45
  angle deg
:documentation
   .ast/.asf automatically generated from VICON data using
   VICON BodyBuilder and BodyLanguage model FoxedUp or BRILLIANT.MOD
:root
   order TX TY TZ RX RY RZ
   axis XYZ
   position 0 0 0  
   orientation 0 0 0 
:bonedata
  begin
     id 1 
     name lhipjoint
     direction 0.547975 -0.797114 0.253638 
     length 2.36201 
     axis 0 0 0  XYZ
  end
  begin
     id 2 
     name lfemur
     direction 0.34202 -0.939693 0  
     length 7.69075  
     axis 0 0 20  XYZ
    dof rx ry rz
    limits (-160.0 20.0)
           (-70.0 70.0)
           (-60.0 70.0)
  end
  begin
     id 3 
     name ltibia
     direction 0.34202 -0.939693 0   
     length 7.91399   
     axis 0 0 20   XYZ
    dof rx
    limits (-10.0 170.0)
  end
  begin
     id 4 
     name lfoot
     direction 0.0705293 -0.193778 0.978507   
     length 2.13618   
     axis -90 7.62852e-016 20   XYZ
    dof rx rz
    limits (-45.0 90.0)
           (-70.0 20.0)
  end
  begin
     id 5 
     name ltoes
     direction 1.53592e-011 -4.21925e-011 1   
     length 1.07518   
     axis -90 7.62852e-016 20   XYZ
    dof rx
    limits (-90.0 20.0)
  end
  begin
     id 6 
     name rhipjoint
     direction -0.57 -0.782963 0.249136   
     length 2.4047  
     axis 0 0 0  XYZ 
  end
  begin
     id 7 
     name rfemur
     direction -0.34202 -0.939693 0   
     length 7.51486   
     axis 0 0 -20   XYZ
    dof rx ry rz
    limits (-160.0 20.0)
           (-70.0 70.0)
           (-70.0 60.0)
  end
  begin
     id 8 
     name rtibia
     direction -0.34202 -0.939693 0   
     length 8.08317   
     axis 0 0 -20   XYZ
    dof rx
    limits (-10.0 170.0)
 end
 begin
     id 9 
     name rfoot
     direction -0.104954 -0.281256 0.953876   
     length 2.30343  
     axis -90 -7.62852e-016 -20   XYZ
    dof rx rz
    limits (-45.0 90.0)
           (-20.0 70.0)
  end
  begin
     id 10 
     name rtoes
     direction -1.53556e-011 -4.21922e-011 1   
     length 1.14803   
     axis -90 -7.62852e-016 -20   XYZ
    dof rx
    limits (-90.0 20.0)
  end
  begin
     id 11 
     name lowerback
     direction -0.0152855 0.99353 -0.11254   
     length 2.05311   
     axis 0 0 0   XYZ
    dof rx ry rz
    limits (-20.0 45.0)
           (-30.0 30.0)
           (-30.0 30.0)
  end
  begin
     id 12 
     name upperback
     direction -0.00157509 0.999443 -0.033332   
     length 2.06353   
     axis 0 0 0   XYZ
    dof rx ry rz
    limits (-20.0 45.0)
           (-30.0 30.0)
           (-30.0 30.0)
  end
  begin
     id 13 
     name thorax
     direction 0.00577788 0.999804 0.0189484   
     length 2.08472   
     axis 0 0 0   XYZ
    dof rx ry rz
    limits (-20.0 45.0)
           (-30.0 30.0)
           (-30.0 30.0)
  end
  begin
     id 14 
     name lowerneck
     direction -1.09301e-005 0.994719 0.10264   
     length 1.76249   
     axis 0 0 0   XYZ
    dof rx ry rz
    limits (-20.0 45.0)
           (-30.0 30.0)
           (-30.0 30.0)
  end
  begin
     id 15 
     name upperneck
     direction 0.0495018 0.988526 -0.142706   
     length 1.77897   
     axis 0 0 0   XYZ
    dof rx ry rz
    limits (-20.0 45.0)
           (-30.0 30.0)
           (-30.0 30.0)
  end
  begin
     id 16
     name head
     direction 0.0142736 0.998114 -0.0597101  
     length 1.78934  
     axis 0 0 0   XYZ
    dof rx ry rz
    limits (-20.0 45.0)
           (-30.0 30.0)
           (-30.0 30.0)
  end
  begin
     id 17 
     name lclavicle
     direction 0.918111 0.396107 -0.0130883  
     length 3.37276  
     axis 0 0 0   XYZ
    dof ry rz
    limits (-20.0 10.0)
           (0.0 20.0)
  end
  begin
     id 18 
     name lhumerus
     direction 1 -4.48975e-011 -3.26108e-027   
     length 5.34298   
     axis 180 -30 -90   XYZ
    dof rx ry rz
    limits (-60.0 90.0)
           (-90.0 90.0)
           (-90.0 90.0)
  end
  begin
     id 19
     name lradius
     direction 1 -4.48964e-011 -8.84413e-028   
     length 3.67262   
     axis 180 -30 -90   XYZ
    dof rx
    limits (-10.0 170.0)
  end
  begin
     id 20
     name lwrist
     direction 1 -4.48991e-011 -1.24264e-027   
     length 1.83631   
     axis -2.17013e-015 90 90   XYZ
    dof ry
    limits (-180.0 0.0)
 end
  begin
     id 21 
     name lhand
     direction 1 -4.48855e-011 -2.48528e-027   
     length 0.599298   
     axis 1.58582e-015 90 90   XYZ
    dof rx rz
    limits (-90.0 90.0)
           (-45.0 45.0)
  end
  begin
     id 22 
     name lfingers
     direction 1 -4.48811e-011 -4.97056e-027   
     length 0.48317   
     axis 3.17164e-015 90 90   XYZ
    dof rx
    limits (0.0 90.0)
  end
  begin
     id 23
     name lthumb
     direction 0.707107 -6.34882e-011 0.707107   
     length 0.693738   
     axis -90 45 2.85299e-015   XYZ
    dof rx rz
    limits (-45.0 45.0)
           (-45.0 45.0)
  end
  begin
     id 24 
     name rclavicle
     direction -0.920511 0.384752 -0.0680135   
     length 3.43787  
     axis 0 0 0   XYZ 
    dof ry rz
    limits (-10.0 20.0)
           (-20.0 0.0)
  end
  begin
     id 25 
     name rhumerus
     direction -0.999976 -0.00330524 0.00603274  
     length 5.5498   
     axis 180 30 90   XYZ
    dof rx ry rz
    limits (-90.0 60.0)
           (-90.0 90.0)
           (-90.0 90.0)
  end
  begin
     id 26 
     name rradius
     direction -1 -4.48967e-011 8.62438e-027   
     length 3.69401   
     axis 180 30 90   XYZ
    dof rx
    limits (-10.0 170.0)
  end
  begin
     id 27 
     name rwrist
     direction -1 -4.4897e-011 9.54866e-027   
     length 1.84701   
     axis -7.69462e-015 -90 -90   XYZ
    dof ry
    limits (-180.0 0.0)
  end
  begin
     id 28
     name rhand
     direction -1 -4.48982e-011 1.90973e-026   
     length 0.638113   
     axis -1.21857e-014 -90 -90   XYZ
    dof rx rz
    limits (-90.0 90.0)
           (-45.0 45.0)
  end
  begin
     id 29
     name rfingers
     direction -1 -4.48936e-011 3.81946e-026   
     length 0.514463   
     axis -2.43714e-014 -90 -90   XYZ
    dof rx
    limits (0.0 90.0)
  end
  begin
     id 30
     name rthumb
     direction -0.707107 -6.34942e-011 0.707107   
     length 0.738669   
     axis -90 -45 -2.85299e-015   XYZ
    dof rx rz
    limits (-45.0 45.0)
           (-45.0 45.0)
  end
:hierarchy
  begin
    root lhipjoint rhipjoint lowerback
    lhipjoint lfemur
    lfemur ltibia
    ltibia lfoot
    lfoot ltoes
    rhipjoint rfemur
    rfemur rtibia
    rtibia rfoot
    rfoot rtoes
    lowerback upperback
    upperback thorax
    thorax lowerneck lclavicle rclavicle
    lowerneck upperneck
    upperneck head
    lclavicle lhumerus
    lhumerus lradius
    lradius lwrist
    lwrist lhand lthumb
    lhand lfingers
    rclavicle rhumerus
    rhumerus rradius
    rradius rwrist
    rwrist rhand rthumb
    rhand rfingers
  end

#!OML:ASF F:\twosubjects\two\Thursday\Session 1\Rory.ASF
:FULLY-SPECIFIED
:DEGREES
102
root 7.92891 18.2153 10.3342 1.3229 -59.134 7.17898
lowerback 11.9132 0.372164 -3.78368
upperback 8.2776 -0.127411 -2.76729
thorax 1.99417 -0.263594 -0.745658
lowerneck -8.20597 -5.59581 -6.34916
upperneck 0.849506 -7.4733 13.5885
head 2.37863 -3.45169 4.77627
rclavicle 2.96189e-014 -2.0276e-014
rhumerus -60.6478 -16.905 -18.6387
rradius 13.0805
rwrist 75.8642
rhand -19.691 14.1944
rfingers 7.12502
rthumb 6.63813 -15.6816
lclavicle 2.96189e-014 -2.0276e-014
lhumerus -70.289 -1.82374 86.5488
lradius 22.528
lwrist -34.8975
lhand -8.83909 25.5009
lfingers 7.12502
lthumb 17.1013 54.7682
rfemur -24.4066 7.12383 15.4069
rtibia 38.4274
rfoot -18.7191 -13.0599
rtoes -8.86919
lfemur -26.8702 -7.80877 -9.09191
ltibia 28.9683
lfoot -9.62656 5.2671
ltoes -0.069304
103
root 7.93152 18.2387 10.2943 1.66122 -59.1885 7.10303
lowerback 11.6396 0.396806 -3.89601
upperback 8.1575 -0.085777 -2.7472
thorax 2.01466 -0.243914 -0.665033
lowerneck -8.06649 -5.5261 -6.29315
upperneck 0.964177 -7.39577 13.5224
head 2.37649 -3.41518 4.75406
rclavicle 1.17283e-014 -1.74931e-014
rhumerus -60.5825 -16.3324 -19.518
rradius 13.3794
rwrist 75.0265
rhand -20.3529 14.7194
rfingers 7.12502
rthumb 5.99915 -15.1756
lclavicle 1.17283e-014 -1.74931e-014
lhumerus -70.3869 -1.81862 86.9465
lradius 22.643
lwrist -34.6253
lhand -9.35219 27.4771
lfingers 7.12502
lthumb 16.6074 56.7865
rfemur -24.7239 6.99036 15.5489
rtibia 38.246
rfoot -18.584 -12.7374
rtoes -6.49681
lfemur -26.9833 -8.60711 -8.6697
ltibia 28.5907
lfoot -9.12717 6.078
ltoes -1.53934
104
root 7.9366 18.2475 10.2492 2.36284 -58.8957 6.51869
lowerback 11.5727 0.258922 -3.86211
upperback 7.9789 -0.255754 -2.58127
thorax 1.86441 -0.323323 -0.492943
lowerneck -7.826 -5.41613 -6.39251
upperneck 1.1503 -7.26369 13.5535
head 2.3834 -3.35112 4.79228
rclavicle 5.60573e-014 -2.34566e-014
rhumerus -60.0301 -15.2455 -20.9558
rradius 13.3964
rwrist 73.3496
rhand -23.2085 16.6182
rfingers 7.12502
rthumb 3.24173 -13.3369
lclavicle 5.60573e-014 -2.34566e-014
lhumerus -70.6268 -1.7144 87.4879
lradius 22.7657
lwrist -34.1592
lhand -9.71074 29.3209
lfingers 7.12502
lthumb 16.2622 58.6589
rfemur -24.9056 6.97262 15.991
rtibia 37.9968
rfoot -18.3161 -12.8057
rtoes -4.58031
lfemur -27.184 -8.84023 -8.11288
ltibia 28.258
lfoot -8.83608 6.06902
ltoes -0.550075
105
root 7.94319 18.2421 10.1989 3.59585 -58.2905 5.19462
lowerback 11.6573 0.0170432 -3.40677
upperback 7.89501 -0.531574 -2.29573
thorax 1.73063 -0.444278 -0.422163
lowerneck -7.76543 -5.39683 -6.6422
upperneck 1.31571 -7.24134 13.7343
head 2.43697 -3.33382 4.89022
rclavicle 7.4743e-014 -4.57205e-014
rhumerus -59.9095 -15.7867 -20.5078
rradius 13.3234
rwrist 73.7339
rhand -22.8021 15.8741
rfingers 7.12502
rthumb 3.63422 -14.0747
lclavicle 7.4743e-014 -4.57205e-014
lhumerus -70.7915 -1.80108 88.2423
lradius 23.0736
lwrist -33.4223
lhand -10.6025 28.3401
lfingers 7.12502
lthumb 15.4034 57.7462
rfemur -24.958 7.16042 16.8653
rtibia 37.7959
rfoot -18.2108 -13.279
rtoes -2.77826
lfemur -27.4397 -8.23403 -7.36364
ltibia 27.92
lfoot -8.45853 5.26449
ltoes -1.9469
106
root 7.94446 18.2589 10.186 2.64318 -58.7699 5.94001
lowerback 11.6906 0.245513 -3.68412
upperback 8.02266 -0.263453 -2.46875
thorax 1.84559 -0.323523 -0.474705
lowerneck -7.92669 -5.49293 -6.62875
upperneck 1.53274 -7.38205 13.6467
head 2.53753 -3.39268 4.84613
rclavicle -4.49253e-014 -2.82274e-014
rhumerus -59.6924 -15.3716 -21.4139
rradius 13.3976
rwrist 72.4418
rhand -20.4439 14.0684
rfingers 7.12502
rthumb 5.91126 -15.8291
lclavicle -4.49253e-014 -2.82274e-014
lhumerus -70.844 -2.17082 88.9235
lradius 23.4166
lwrist -32.9912
lhand -10.9157 26.1479
lfingers 7.12502
lthumb 15.1017 55.577
rfemur -24.5215 7.56387 16.4853
rtibia 37.5773
rfoot -18.2659 -13.0942
rtoes -1.42988
lfemur -26.6096 -8.25141 -7.85286
ltibia 27.4983
lfoot -8.73698 5.79278
ltoes -4.07191
107
root 7.94969 18.2704 10.163 2.45285 -58.9973 6.13543
lowerback 11.6094 0.364905 -3.67813
upperback 7.99572 -0.102959 -2.61305
thorax 1.85804 -0.239838 -0.643819
lowerneck -7.98089 -5.53061 -6.42742
upperneck 1.81774 -7.47585 13.5824
head 2.62978 -3.42853 4.78319
rclavicle -4.09496e-014 2.10712e-014
rhumerus -59.3425 -13.8002 -23.6411
rradius 13.6358
rwrist 69.5919
rhand -18.8753 13.5145
rfingers 7.12502
rthumb 7.42555 -16.3352
lclavicle -4.09496e-014 2.10712e-014
lhumerus -71.0329 -2.63549 89.5474
lradius 23.7258
lwrist -32.7105
lhand -10.8059 25.9944
lfingers 7.12502
lthumb 15.2074 55.4155
rfemur -24.5 7.81897 16.4302
rtibia 37.3649
rfoot -18.2024 -13.1753
rtoes -0.318321
lfemur -26.2745 -8.25307 -7.93468
ltibia 27.1797
lfoot -9.10285 5.92284
ltoes -3.13775
108
root 7.94945 18.29 10.1243 2.77087 -58.916 5.87776
lowerback 11.4661 0.364992 -3.65841
upperback 7.91606 -0.0906275 -2.59875
thorax 1.85077 -0.230352 -0.640504
lowerneck -7.94659 -5.52222 -6.40631
upperneck 2.10172 -7.49939 13.6333
head 2.71189 -3.43075 4.79213
rclavicle -1.20464e-013 3.57812e-014
rhumerus -59.3057 -13.4462 -24.2326
rradius 13.7711
rwrist 68.7287
rhand -18.3981 13.7638
rfingers 7.12502
rthumb 7.88616 -16.0692
lclavicle -1.20464e-013 3.57812e-014
lhumerus -71.2912 -3.15901 90.5402
lradius 24.0652
lwrist -32.2259
lhand -10.951 27.3394
lfingers 7.12502
lthumb 15.0677 56.771
rfemur -24.5612 8.22818 16.6448
rtibia 37.1344
rfoot -18.2148 -13.6605
rtoes 0.706941
lfemur -26.1816 -8.15679 -7.70911
ltibia 26.7967
lfoot -9.57744 5.72105
ltoes -2.24524
109
root 7.94805 18.2963 10.0909 3.09693 -58.7994 5.64133
lowerback 11.2123 0.34359 -3.6719
upperback 7.87865 -0.101779 -2.54046
thorax 1.94873 -0.23659 -0.571205
lowerneck -7.83198 -5.51852 -6.25399
upperneck 2.12886 -7.50061 13.4123
head 2.68519 -3.43862 4.7016
rclavicle -7.95139e-016 9.14409e-015
rhumerus -59.4082 -14.3862 -23.4481
rradius 13.5209
rwrist 69.6289
rhand -18.0324 13.6464
rfingers 7.12502
rthumb 8.23905 -16.173
lclavicle -7.95139e-016 9.14409e-015
lhumerus -71.343 -3.54449 91.1954
lradius 24.2532
lwrist -31.8505
lhand -10.9134 27.3588
lfingers 7.12502
lthumb 15.1039 56.7877
rfemur -24.6241 8.50245 16.827
rtibia 36.95
rfoot -18.2008 -14.0432
rtoes 1.17353
lfemur -26.2123 -8.28546 -7.44163
ltibia 26.5404
lfoot -10.2757 5.86568
ltoes -2.79772
110
root 7.95538 18.3098 10.071 2.40747 -58.6771 6.52022
lowerback 11.0556 0.258108 -4.10585
upperback 7.81832 -0.241832 -2.6622
thorax 1.97656 -0.319444 -0.442195
lowerneck -7.64126 -5.45832 -6.16214
upperneck 2.17913 -7.42547 13.2165
head 2.64865 -3.41027 4.63555
rclavicle 4.77083e-014 1.59028e-014
rhumerus -59.4563 -14.9891 -22.9816
rradius 13.4594
rwrist 70.3356
rhand -17.9816 13.7701
rfingers 7.12502
rthumb 8.28813 -16.0473
lclavicle 4.77083e-014 1.59028e-014
lhumerus -71.3258 -3.45546 91.2872
lradius 24.2694
lwrist -31.7386
lhand -10.7 26.6349
lfingers 7.12502
lthumb 15.3094 56.0483
rfemur -24.6032 8.50471 16.335
rtibia 36.7303
rfoot -17.8985 -14.3078
rtoes 0.592186
lfemur -26.1912 -8.11427 -8.01975
ltibia 26.443
lfoot -10.7845 6.16143
ltoes -2.78914
111
root 7.96929 18.3184 10.0569 2.1378 -58.3556 6.69386
lowerback 11.228 0.0684076 -4.09341
upperback 7.73175 -0.501066 -2.61013
thorax 1.79758 -0.444775 -0.369058
lowerneck -7.43635 -5.38836 -6.54784
upperneck 2.34674 -7.3204 13.3107
head 2.67182 -3.36011 4.7381
rclavicle 1.55052e-014 1.27222e-014
rhumerus -59.1942 -14.6837 -23.2464
rradius 13.5584
rwrist 70.0794
rhand -18.1799 14.5325
rfingers 7.12502
rthumb 8.09673 -15.2924
lclavicle 1.55052e-014 1.27222e-014
lhumerus -71.4133 -3.17397 91.4971
lradius 24.2972
lwrist -32.0257
lhand -10.3729 26.1815
lfingers 7.12502
lthumb 15.6245 55.5706
rfemur -24.3934 8.23396 16.2804
rtibia 36.5601
rfoot -17.6052 -14.5052
rtoes 0.0160559
lfemur -26.0682 -7.6167 -8.38546
ltibia 26.5013
lfoot -11.43 6.26346
ltoes -1.661
112
root 7.98027 18.323 10.0411 2.93133 -58.1143 5.76676
lowerback 11.2447 -0.0643984 -3.4528
upperback 7.67198 -0.617444 -2.45329
thorax 1.71874 -0.478522 -0.552164
lowerneck -7.33111 -5.36232 -6.86662
upperneck 2.36182 -7.27151 13.5
head 2.6736 -3.33676 4.85435
rclavicle 9.14409e-015 -1.51076e-014
rhumerus -58.7618 -14.0917 -23.9971
rradius 13.4044
rwrist 68.887
rhand -17.6655 14.558
rfingers 7.12502
rthumb 8.59315 -15.2471
lclavicle 9.14409e-015 -1.51076e-014
lhumerus -71.424 -3.28352 91.854
lradius 24.3767
lwrist -32.3609
lhand -9.71644 25.5187
lfingers 7.12502
lthumb 16.2567 54.8571
rfemur -24.3402 7.92199 16.8691
rtibia 36.3937
rfoot -17.5066 -14.3856
rtoes 1.01521
lfemur -26.034 -7.25976 -8.00861
ltibia 26.5159
lfoot -11.9472 6.83536
ltoes -3.92705
113
root 7.98956 18.3326 10.0252 2.93634 -57.9757 5.9873
lowerback 11.0571 -0.104551 -3.38068
upperback 7.564 -0.652427 -2.54509
thorax 1.70478 -0.487865 -0.684707
lowerneck -7.26583 -5.38605 -6.86962
upperneck 2.4521 -7.3186 13.5554
head 2.69683 -3.35837 4.86965
rclavicle -9.93923e-016 -3.26007e-014
rhumerus -58.6034 -13.1567 -25.3032
rradius 13.3686
rwrist 66.8681
rhand -17.4283 13.7096
rfingers 7.12502
rthumb 8.82201 -16.086
lclavicle -9.93923e-016 -3.26007e-014
lhumerus -71.4526 -3.64753 92.1394
lradius 24.4619
lwrist -32.4027
lhand -8.94976 24.9327
lfingers 7.12502
lthumb 16.9948 54.2092
rfemur -24.5074 7.62559 16.7388
rtibia 36.231
rfoot -17.4469 -14.1352
rtoes 2.44278
lfemur -26.1297 -6.94399 -8.25418
ltibia 26.5716
lfoot -11.6629 7.7276
ltoes -8.12655
114
root 7.9964 18.348 10.0065 2.66062 -57.7381 6.3592
lowerback 11.0498 -0.187971 -3.50092
upperback 7.4179 -0.772177 -2.62109
thorax 1.55762 -0.545281 -0.683167
lowerneck -7.08646 -5.38295 -6.67908
upperneck 2.61964 -7.33681 13.2899
head 2.69964 -3.37323 4.75823
rclavicle 1.11319e-014 -3.57812e-015
rhumerus -58.8039 -12.8341 -25.703
rradius 13.3961
rwrist 65.9474
rhand -18.0006 13.171
rfingers 7.12502
rthumb 8.26979 -16.6472
lclavicle 1.11319e-014 -3.57812e-015
lhumerus -71.7528 -3.99379 92.6103
lradius 24.7007
lwrist -32.1101
lhand -8.61338 24.7707
lfingers 7.12502
lthumb 17.3186 54.0191
rfemur -24.4604 7.71327 16.5177
rtibia 36.0685
rfoot -17.4479 -14.4821
rtoes 2.7776
lfemur -26.0581 -6.35806 -8.70517
ltibia 26.7097
lfoot -11.5672 8.27908
ltoes -8.08333
115
root 8.00243 18.362 9.98555 2.57812 -57.5404 6.41103
lowerback 11.0927 -0.288728 -3.60115
upperback 7.33115 -0.915255 -2.58235
thorax 1.44767 -0.61751 -0.571557
lowerneck -7.01456 -5.28946 -6.42838
upperneck 2.70357 -7.21584 12.884
head 2.6737 -3.32065 4.60109
rclavicle 1.07543e-013 -5.64548e-014
rhumerus -59.0487 -13.5563 -24.7387
rradius 13.3504
rwrist 66.7006
rhand -18.2785 12.9422
rfingers 7.12502
rthumb 8.00158 -16.8863
lclavicle 1.07543e-013 -5.64548e-014
lhumerus -71.9045 -4.23612 93.2118
lradius 24.9057
lwrist -31.6059
lhand -8.62989 24.5671
lfingers 7.12502
lthumb 17.3027 53.8169
rfemur -24.3578 7.86059 16.5163
rtibia 35.9288
rfoot -17.3055 -14.8968
rtoes 2.3273
lfemur -25.9006 -5.36506 -9.10189
ltibia 26.9022
lfoot -11.9374 8.94014
ltoes -7.10096
116
root 8.0181 18.3712 9.97218 2.32212 -57.5217 6.83337
lowerback 10.9992 -0.346787 -3.77174
upperback 7.26225 -1.00132 -2.61637
thorax 1.43052 -0.663655 -0.503515
lowerneck -7.09465 -5.22608 -6.45915
upperneck 2.84509 -7.12957 12.7752
head 2.71672 -3.27395 4.57525
rclavicle 9.34288e-015 7.95139e-015
rhumerus -59.4525 -14.6679 -23.3143
rradius 13.4706
rwrist 67.9552
rhand -17.8896 12.5777
rfingers 7.12502
rthumb 8.37684 -17.2362
lclavicle 9.34288e-015 7.95139e-015
lhumerus -71.5275 -4.11977 93.1655
lradius 24.569
lwrist -31.7582
lhand -9.0446 23.5961
lfingers 7.12502
lthumb 16.9035 52.8805
rfemur -24.4758 7.90597 16.2416
rtibia 35.7974
rfoot -17.1173 -14.9745
rtoes 2.54445
lfemur -25.8813 -4.10693 -9.79947
ltibia 27.1905
lfoot -11.9097 9.68715
ltoes -8.47571
